<?xml version="1.0" encoding="UTF-8" standalone="no"?>
<!-- Created with Inkscape (http://www.inkscape.org/) -->

<svg
   version="1.1"
   id="svg125"
   width="666.66669"
   height="470.30667"
   viewBox="0 0 666.66669 470.30667"
   sodipodi:docname="252402-P4QTOB-677.eps.svg"
   inkscape:version="1.2.2 (b0a8486, 2022-12-01)"
   inkscape:export-filename="252402-P4QTOB-677.eps.svg"
   inkscape:export-xdpi="96"
   inkscape:export-ydpi="96"
   xmlns:inkscape="http://www.inkscape.org/namespaces/inkscape"
   xmlns:sodipodi="http://sodipodi.sourceforge.net/DTD/sodipodi-0.dtd"
   xmlns="http://www.w3.org/2000/svg"
   xmlns:svg="http://www.w3.org/2000/svg">
  <defs
     id="defs129" />
  <sodipodi:namedview
     id="namedview127"
     pagecolor="#ffffff"
     bordercolor="#000000"
     borderopacity="0.25"
     inkscape:showpageshadow="2"
     inkscape:pageopacity="0.0"
     inkscape:pagecheckerboard="0"
     inkscape:deskcolor="#d1d1d1"
     showgrid="false"
     inkscape:zoom="0.50180024"
     inkscape:cx="25.906723"
     inkscape:cy="184.3363"
     inkscape:window-width="1419"
     inkscape:window-height="717"
     inkscape:window-x="0"
     inkscape:window-y="25"
     inkscape:window-maximized="0"
     inkscape:current-layer="g135" />
  <g
     id="g133"
     inkscape:groupmode="layer"
     inkscape:label="Page 1"
     transform="matrix(1.3333333,0,0,-1.3333333,0,470.30667)">
    <g
       id="g135"
       transform="scale(0.1)">
      <path
         d="M 4346.64,1658.64 H 1591.37 v -168.06 h 2755.27 v 168.06"
         style="fill:#c0e5f7;fill-opacity:1;fill-rule:nonzero;stroke:none"
         id="path137" 
         class="building layer_3"/>
      <path
         d="m 1701.78,2427.54 h -219.32 v -980.95 h 219.32 v 980.95"
         style="fill:#c0e5f7;fill-opacity:1;fill-rule:nonzero;stroke:none"
         id="path139" 
         class="building layer_3"/>
      <path
         d="M 1116.67,2184.09 H 631.664 v -696.07 h 485.006 v 696.07"
         style="fill:#c0e5f7;fill-opacity:1;fill-rule:nonzero;stroke:none"
         id="path141" 
         class="building layer_3"/>
      <path
         d="M 1116.67,2231.81 H 705.801 v -104.57 h 410.869 v 104.57"
         style="fill:#c0e5f7;fill-opacity:1;fill-rule:nonzero;stroke:none"
         id="path143" 
         class="building layer_3"/>
      <path
         d="M 1116.67,2279.5 H 772.313 v -89.9 h 344.357 v 89.9"
         style="fill:#c0e5f7;fill-opacity:1;fill-rule:nonzero;stroke:none"
         id="path145" 
         class="building layer_3"/>
      <path
         d="M 1116.67,2334.93 H 828.438 v -79.98 h 288.232 v 79.98"
         style="fill:#c0e5f7;fill-opacity:1;fill-rule:nonzero;stroke:none"
         id="path147" 
         class="building layer_3"/>
      <path
         d="M 1116.67,2370.01 H 874.164 v -49.81 h 242.506 v 49.81"
         style="fill:#c0e5f7;fill-opacity:1;fill-rule:nonzero;stroke:none"
         id="path149" 
         class="building layer_3"/>
      <path
         d="M 1116.67,2427.54 H 944.492 V 2320.2 h 172.178 v 107.34"
         style="fill:#c0e5f7;fill-opacity:1;fill-rule:nonzero;stroke:none"
         id="path151" 
         class="building layer_3"/>
      <path
         d="M 1116.67,1816.04 H 730 v -343.36 h 386.67 v 343.36"
         style="fill:#c0e5f7;fill-opacity:1;fill-rule:nonzero;stroke:none"
         id="path153" 
         class="building layer_3"/>
      <path
         d="M 533.336,1865.16 290,1970.93 v -464.1 h 243.336 v 358.33"
         style="fill:#c0e5f7;fill-opacity:1;fill-rule:nonzero;stroke:none"
         id="path155" 
         class="building layer_3"/>
      <path
         d="M 411.664,2123.97 H 220 v -617.14 h 191.664 v 617.14"
         style="fill:#c0e5f7;fill-opacity:1;fill-rule:nonzero;stroke:none"
         id="path157"
         class="building layer_3" />
      <path
         d="M 490,1575.92 H 0 V 1471.6 h 490 v 104.32"
         style="fill:#c0e5f7;fill-opacity:1;fill-rule:nonzero;stroke:none"
         id="path159"
         class="building layer_3" />
      <path
         d="m 4718.03,1779.95 h -166.1 v -326.6 h 166.1 v 326.6"
         style="fill:#c0e5f7;fill-opacity:1;fill-rule:nonzero;stroke:none"
         id="path161" class="building layer_3"/>
      <path
         d="m 4933.36,1733.29 h -204.14 v -345.25 h 204.14 v 345.25"
         style="fill:#c0e5f7;fill-opacity:1;fill-rule:nonzero;stroke:none"
         id="path163" 
         class="building layer_3"/>
      <path
         d="m 4378.38,1757.54 h -164.22 v -320.98 h 164.22 v 320.98"
         style="fill:#c0e5f7;fill-opacity:1;fill-rule:nonzero;stroke:none"
         id="path165" 
         class="building layer_3"/>
      <path
         d="m 4346.64,1779.95 h -89.57 v -57.86 h 89.57 v 57.86"
         style="fill:#c0e5f7;fill-opacity:1;fill-rule:nonzero;stroke:none"
         id="path167" 
         class="building layer_3"/>
      <path
         d="m 4105.9,1372.18 h -174.49 v 445.1 h 174.49 v -445.1"
         style="fill:#c0e5f7;fill-opacity:1;fill-rule:nonzero;stroke:none"
         id="path169" 
         class="building layer_3"/>
      <path
         d="m 3698.64,1770.61 h -125.66 v 272.46 h 125.66 v -272.46"
         style="fill:#c0e5f7;fill-opacity:1;fill-rule:nonzero;stroke:none"
         id="path171" 
         class="building layer_3"/>
      <path
         d="m 3717.11,1937.33 h -93.28 v 186.64 h 93.28 v -186.64"
         style="fill:#c0e5f7;fill-opacity:1;fill-rule:nonzero;stroke:none"
         id="path173" 
         class="building layer_3"/>
      <path
         d="m 3791.78,1709.64 h -106.99 v 311.04 h 106.99 v -311.04"
         style="fill:#c0e5f7;fill-opacity:1;fill-rule:nonzero;stroke:none"
         id="path175" 
         class="building layer_3"/>
      <path
         d="m 3807.95,1898.76 h -60.98 v 72.17 h 60.98 v -72.17"
         style="fill:#c0e5f7;fill-opacity:1;fill-rule:nonzero;stroke:none"
         id="path177" 
         class="building layer_3"/>
      <path
         d="m 3837.79,1702.2 h -60.33 v 227.66 h 60.33 V 1702.2"
         style="fill:#c0e5f7;fill-opacity:1;fill-rule:nonzero;stroke:none"
         id="path179" 
         class="building layer_3"/>
      <path
         d="m 3866.41,1418.54 h -378.23 v 419.24 h 378.23 v -419.24"
         style="fill:#c0e5f7;fill-opacity:1;fill-rule:nonzero;stroke:none"
         id="path181" 
         class="building layer_3"/>
      <path
         d="m 3988.34,1418.54 h -196.56 v 314.75 h 196.56 v -314.75"
         style="fill:#c0e5f7;fill-opacity:1;fill-rule:nonzero;stroke:none"
         id="path183" 
         class="building layer_3"/>
      <path
         d="m 3291.64,1418.54 h -149.32 v 730.29 h 149.32 v -730.29"
         style="fill:#c0e5f7;fill-opacity:1;fill-rule:nonzero;stroke:none"
         id="path185" 
         class="building layer_3"/>
      <path
         d="m 3392.4,1418.54 h -199.08 v 594.68 h 199.08 v -594.68"
         style="fill:#c0e5f7;fill-opacity:1;fill-rule:nonzero;stroke:none"
         id="path187" 
         class="building layer_3"/>
      <path
         d="m 3203.3,1407.33 h -195.33 v 486.45 h 195.33 v -486.45"
         style="fill:#c0e5f7;fill-opacity:1;fill-rule:nonzero;stroke:none"
         id="path189" 
         class="building layer_3"/>
      <path
         d="m 2958.2,1436.56 h -160.5 v 366.42 h 160.5 v -366.42"
         style="fill:#c0e5f7;fill-opacity:1;fill-rule:nonzero;stroke:none"
         id="path191" 
         class="building layer_3"/>
      <path
         d="m 2848.36,1438.65 h -186.15 v 897.01 h 186.15 v -897.01"
         style="fill:#c0e5f7;fill-opacity:1;fill-rule:nonzero;stroke:none"
         id="path193" 
         class="building layer_3"/>
      <path
         d="m 4460,1619.77 h 540 v -129.19 h -540 v 129.19"
         style="fill:#c0e5f7;fill-opacity:1;fill-rule:nonzero;stroke:none"
         id="path195" 
         class="building layer_3"/>
      <path
         d="M 245.156,1677.44 H 106.637 v -253.93 h 138.519 v 253.93"
         style="fill:#accede;fill-opacity:1;fill-rule:nonzero;stroke:none"
         id="path197" 
         class="building layer_2"/>
      <path
         d="m 1372.5,1893.78 h -196.66 v -470.27 h 196.66 v 470.27"
         style="fill:#accede;fill-opacity:1;fill-rule:nonzero;stroke:none"
         id="path199" 
         class="building layer_2"/>
      <path
         d="m 1752.95,1780.63 h -323.16 v -357.12 h 323.16 v 357.12"
         style="fill:#accede;fill-opacity:1;fill-rule:nonzero;stroke:none"
         id="path201" 
         class="building layer_2"/>
      <path
         d="m 2486.59,2633.23 c 0,0 63.21,28.43 57.89,39.7 -5.36,11.25 -5.36,11.25 -5.36,11.25 l 9.5,45.03 -16.59,14.81 -6.52,36.74 h -29.63 l -1.39,61.8 h -15.79 v 245.13 c 0,0 14.81,1.19 11.84,8.88 -2.96,7.71 -17.77,26.66 -17.77,26.66 v 148.14 l -4.2,4.19 c -0.86,153.92 -2.7,252.29 -5.94,251.77 -2.05,-0.33 -3.67,-1.28 -5,-2.6 -1.32,1.32 -2.95,2.27 -5,2.6 -3.25,0.52 -5.08,-97.85 -5.95,-251.77 l -4.19,-4.19 v -148.14 c 0,0 -14.81,-18.95 -17.78,-26.66 -2.97,-7.69 11.85,-8.88 11.85,-8.88 v -245.13 h -15.8 l -1.38,-61.8 h -29.63 l -6.51,-36.74 -16.59,-14.81 9.47,-45.03 c 0,0 0,0 -5.32,-11.25 -5.34,-11.27 57.86,-39.7 57.86,-39.7 l -72.68,-1160.55 h 96.65 10 96.65 l -72.69,1160.55"
         style="fill:#7daac3;fill-opacity:1;fill-rule:nonzero;stroke:none"
         id="path203" 
         class="building layer_1"/>
      <g
         id="g207"
         transform="matrix(10,0,0,10,29.892374,-463.3318)">
        <text
           xml:space="preserve"
           transform="matrix(1,0,0,-1,105.45,84.948)"
           style="font-variant:normal;font-weight:bold;font-size:49.5153px;font-family:OpenSans;-inkscape-font-specification:OpenSans-Bold;writing-mode:lr-tb;fill:#7daac3;fill-opacity:1;fill-rule:nonzero;stroke:none"
           id="text211"><tspan
             class="toronto"
             x="0 33.625988 77.986382 115.62598 159.98587 205.19289 238.81886"
             y="0"
             sodipodi:role="line"
             id="tspan209">TORONTO</tspan></text>
        <text
           xml:space="preserve"
           transform="matrix(1,0,0,-1,193.8328,61.0121)"
           style="font-variant:normal;font-weight:bold;font-size:18.4177px;font-family:Roboto;-inkscape-font-specification:Roboto-Bold;writing-mode:lr-tb;fill:#7daac3;fill-opacity:1;fill-rule:nonzero;stroke:none"
           id="text215"><tspan
             class="skyline"
             x="0 16.286589 32.788994 49.012611 63.581013 73.59079 91.235321"
             y="0"
             sodipodi:role="line"
             id="tspan213">SKYLINE</tspan></text>
      </g>
      <path
         d="m 2251.6,1871.6 c -27.2,-101.79 -20,-400 -20,-400 h -193.5 c 0,0 -8.3,105.4 -1,176.4 7.2,70.9 -27.3,263.6 -41.9,354.5 -9.3,58.5 2.4,180.9 12,260.8 h 213 c 3,-21.7 6.9,-48.2 11.4,-75.3 10.9,-65.5 47.3,-214.6 20,-316.4"
         style="fill:#accede;fill-opacity:1;fill-rule:nonzero;stroke:none"
         id="path217" 
         class="building layer_2"/>
      <path
         d="m 1969.5,1830.9 c -20,-65.5 -27.3,-180 -27.3,-220 0,-40 0.9,-125.5 0.9,-125.5 l -140,3.6 c 0,0 -6.3,284.6 -22.7,328.2 -16.4,43.7 -17.3,82.8 -4.6,114.6 12.1,30 25.3,186.7 17.2,331.5 h 133.9 c -0.8,-49.2 -0.2,-157.4 19,-223.3 25.4,-87.3 43.6,-143.7 23.6,-209.1"
         style="fill:#accede;fill-opacity:1;fill-rule:nonzero;stroke:none"
         id="path219" 
         class="building layer_2"/>
      <path
         d="M 5000,1339.57 H 0 v 151.01 h 5000 v -151.01"
         style="fill:#7daac3;fill-opacity:1;fill-rule:nonzero;stroke:none"
         id="path221" 
         class="building layer_1"/>
      <path
         d="m 3261.62,2733.95 h 311.36 V 1489.7 h -311.36 v 1244.25"
         style="fill:#accede;fill-opacity:1;fill-rule:nonzero;stroke:none"
         id="path223" 
         class="building layer_2"/>
      <path
         d="m 3531.85,2833.94 h -229.1 v -127.83 h 229.1 v 127.83"
         style="fill:#accede;fill-opacity:1;fill-rule:nonzero;stroke:none"
         id="path225" 
         class="building layer_2"/>
      <path
         d="m 3479.95,2913.68 h -125.3 V 2802.3 h 125.3 v 111.38"
         style="fill:#accede;fill-opacity:1;fill-rule:nonzero;stroke:none"
         id="path227" 
         class="building layer_2"/>
      <path
         d="m 3143.85,2637.76 h -336.67 v -1169.5 h 336.67 v 1169.5"
         style="fill:#accede;fill-opacity:1;fill-rule:nonzero;stroke:none"
         id="path229" 
         class="building layer_2"/>
      <path
         d="M 3112.63,2678.26 H 2838.4 v -57.38 h 274.23 v 57.38"
         style="fill:#accede;fill-opacity:1;fill-rule:nonzero;stroke:none"
         id="path231" 
         class="building layer_2"/>
      <path
         d="m 3087.73,2719.61 h -224.44 v -45.57 h 224.44 v 45.57"
         style="fill:#accede;fill-opacity:1;fill-rule:nonzero;stroke:none"
         id="path233" 
         class="building layer_2"/>
      <path
         d="m 3056.94,2760.11 h -162.86 v -48.94 h 162.86 v 48.94"
         style="fill:#accede;fill-opacity:1;fill-rule:nonzero;stroke:none"
         id="path235" 
         class="building layer_2"/>
      <path
         d="m 3038.38,2809.05 h -125.73 v -48.94 h 125.73 v 48.94"
         style="fill:#accede;fill-opacity:1;fill-rule:nonzero;stroke:none"
         id="path237" 
         class="building layer_2"/>
      <path
         d="m 2988.59,2904.39 h -26.16 v -119.81 h 26.16 v 119.81"
         style="fill:#accede;fill-opacity:1;fill-rule:nonzero;stroke:none"
         id="path239" 
         class="building layer_2"/>
      <path
         d="m 2999.14,2890.89 h -47.26 v 66.66 h 47.26 v -66.66"
         style="fill:#accede;fill-opacity:1;fill-rule:nonzero;stroke:none"
         id="path241" 
         class="building layer_2"/>
      <path
         d="m 3754.65,1650.57 -91.24,84.94 -24.12,-14.04 -100.61,-110.14 -100.96,59.38 -43,-42.61 v 132.6 l -5.76,1.8 v 10.08 c 0,0 0.72,31.68 -29.52,37.08 0,0 0.18,9.27 -6.3,9.53 -6.48,0.27 -6.74,-9.44 -6.74,-9.44 0,0 -23.76,-4.06 -27.27,-36.72 l -68.04,81.98 -24.11,-1.43 -24.11,1.43 -68.04,-81.98 c -3.51,32.66 -27.26,36.72 -27.26,36.72 0,0 -0.28,9.71 -6.75,9.44 -6.48,-0.26 -6.31,-9.53 -6.31,-9.53 -30.23,-5.4 -29.5,-37.08 -29.5,-37.08 v -10.08 l -5.76,-1.8 v -88.37 h -174.4 l -43.37,72.9 -24.12,14.03 -96.46,-85.3 0.42,-1.63 h -2.76 v -143.07 h -42.65 v -83.15 h 42.65 61.82 78.56 25.91 342.13 540.63 l -12.96,204.46"
         style="fill:#7daac3;fill-opacity:1;fill-rule:nonzero;stroke:none"
         id="path243"
         class="building layer_1" />
      <path
         d="M 1455.05,1590.15 V 1423.51 H 394.496 v 166.64 H 1455.05"
         style="fill:#7daac3;fill-opacity:1;fill-rule:nonzero;stroke:none"
         id="path245" 
         class="building layer_1"/>
      <path
         d="m 1355.48,1501.41 c 0,-27.17 -6.92,-53.37 -19.78,-77.9 H 541.973 c -12.864,24.53 -19.782,50.73 -19.782,77.9 0,31.2 9.137,61.09 25.883,88.74 58.785,97.32 211.551,166.67 390.766,166.67 179.21,0 331.97,-69.35 390.75,-166.67 16.75,-27.65 25.89,-57.54 25.89,-88.74"
         style="fill:#7daac3;fill-opacity:1;fill-rule:nonzero;stroke:none"
         id="path247" 
         class="building layer_1"/>
      <path
         d="m 2423.75,224.012 c -0.01,0.039 -0.01,0.078 -0.01,0.117 0,-0.039 0,-0.078 0.01,-0.117"
         style="fill:#ffffff;fill-opacity:1;fill-rule:nonzero;stroke:none"
         id="path291" />
      <path
         d="m 2424.58,218.801 c 0.01,0 0.01,0 0.03,0 -0.32,1.488 -0.57,2.961 -0.75,4.429 0.18,-1.488 0.43,-2.96 0.72,-4.429"
         style="fill:#ffffff;fill-opacity:1;fill-rule:nonzero;stroke:none"
         id="path293" />
      <path
         d="m 2429.99,203.641 c -0.04,0.078 -0.08,0.148 -0.11,0.211 0.03,-0.063 0.07,-0.133 0.11,-0.211"
         style="fill:#ffffff;fill-opacity:1;fill-rule:nonzero;stroke:none"
         id="path295" />
      <path
         d="m 2429.47,204.648 c -0.14,0.293 -0.28,0.582 -0.42,0.864 0.14,-0.301 0.28,-0.571 0.42,-0.864"
         style="fill:#ffffff;fill-opacity:1;fill-rule:nonzero;stroke:none"
         id="path297" />
      <path
         d="m 2426.1,212.98 c 0.79,-2.519 1.76,-4.98 2.88,-7.3 -1.15,2.371 -2.09,4.82 -2.87,7.3 h -0.01"
         style="fill:#ffffff;fill-opacity:1;fill-rule:nonzero;stroke:none"
         id="path299" />
      <rect
         style="fill:#00be39;fill-opacity:1;stroke-width:0.576925"
         id="rect822-8"
         width="144.86333"
         height="11.497068"
         x="2977.7402"
         y="-3112.2559"
         transform="scale(1,-1)"
         ry="1.1497068"
         class="pride red" />
      <rect
         style="fill:#0000ff;stroke-width:0.576925"
         id="rect822-7"
         width="144.86333"
         height="11.497068"
         x="2978.8896"
         y="-3101.9084"
         transform="scale(1,-1)"
         ry="1.1497068"
         class="pride orange" />
      <rect
         style="fill:#6a006a;fill-opacity:1;stroke-width:0.576925"
         id="rect822-74"
         width="144.86333"
         height="11.497068"
         x="2977.7402"
         y="-3090.4114"
         transform="scale(1,-1)"
         ry="1.1497068" 
         class="pride yellow"/>
      <rect
         style="fill:#ff7f2a;stroke-width:0.576925"
         id="rect822-4"
         width="144.86333"
         height="11.497068"
         x="2978.8896"
         y="-3137.5493"
         transform="scale(1,-1)"
         ry="1.1497068"
         class="pride green" />
      <rect
         style="fill:#ffff00;stroke-width:0.576925"
         id="rect822-9"
         width="144.86333"
         height="11.497068"
         x="2977.7402"
         y="-3124.9026"
         transform="scale(1,-1)"
         ry="1.1497068" 
         class="pride blue"/>
      <rect
         style="fill:#ff0000;stroke-width:0.576925"
         id="rect822-1"
         width="144.86333"
         height="11.497068"
         x="2978.8896"
         y="-3150.196"
         transform="scale(1,-1)"
         ry="1.1497068" 
         class="pride purple"/>
      <rect
         style="fill:#2b0000;fill-opacity:1;stroke-width:0.504506"
         id="rect3230"
         width="5.7485442"
         height="179.35428"
         x="2974.291"
         y="-3153.6453"
         transform="scale(1,-1)"
         ry="0.8791877" 
         class="pride black"/>
    </g>
  </g>
</svg>
